<svg viewBox="0 0 1584 351.73" xmlns="http://www.w3.org/2000/svg"><g fill="#fff"><path d="m58.08 351.73c4-6.83 14.75-25.36 25.54-43.85 10-17.13 19.61-33.64 22.75-39.07 11.27-19.52 39.12-19.08 59.32-18.77 3.14.05 6.09.1 8.77.07l19-.1-48.91 84.72a33.09 33.09 0 0 1 -27.88 16.53l-20.2.47z" opacity=".7"/><path d="m270.83 228 26.43-44.93-49.67.24h-36.87c-59 0-78 36.23-90.55 60.27-1.69 3.24-3.27 6.26-4.82 8.94-5 9.08-9 16.28-9 16.28 11.26-19.52 39.12-19.09 59.31-18.77 3.14.05 6.09.1 8.77.06l19-.09 39.57-.25a44.14 44.14 0 0 0 37.83-21.75z"/><path d="m33 0c3.95 6.83 14.59 25.46 25.21 44 9.79 17.26 19.28 33.84 22.42 39.28 11.27 19.52-3.03 43.42-13.41 60.72-1.61 2.7-3.13 5.23-4.44 7.57l-9.43 16.54-48.92-84.7a33.08 33.08 0 0 1 -.37-32.41l9.69-17.72z" opacity=".7"/><path d="m95.56 107.84c-2-3.09-3.78-6-5.33-8.65-5.35-8.88-9.6-15.91-9.6-15.91 11.27 19.52-3.03 43.42-13.41 60.72-1.61 2.69-3.12 5.23-4.44 7.56l-9.43 16.54-19.57 34.42a44.14 44.14 0 0 0 -.05 43.59l25.7 45.35 24.62-43.13 18.44-31.93c29.51-51.1 8.51-84.2-6.93-108.56z"/><path d="m348.37 159.87c-7.89 0-29.33-.09-50.74-.18-19.83-.09-38.94-.17-45.21-.17-22.54 0-36.09-24.34-45.91-42-1.53-2.74-3-5.32-4.33-7.63l-9.61-16.44h97.83a33.1 33.1 0 0 1 28.26 15.88l10.5 17.26z" opacity=".7"/><path d="m134.85 37.49-52.13-.42 25 42.89 18.43 31.93c30.1 52 70.58 47.63 97.53 47.81h10.25c10.36-.19 18.44-.18 18.44-.18-22.54 0-36.09-24.34-45.91-42-1.53-2.74-3-5.32-4.33-7.62l-9.61-16.44-20-34.15a44.16 44.16 0 0 0 -37.67-21.82zm335.83 57.05h-40.68v206.22h40.64v-70.85c7.69 10.16 23.89 18.94 45.86 18.94 47.77 0 75.78-35.42 75.78-78.8s-28-78.8-75.78-78.8c-21.42 0-39.54 9.88-45.86 18.39zm-1.68 75.51c0-26.36 15.93-42.56 41.47-42.56 25.26 0 41.46 18.67 41.46 42.56 0 24.71-15.38 42.83-41.46 42.83-25.47 0-41.47-17.88-41.47-42.83zm139.21 75.51h41.19v-205.9h-41.19zm177.09 0h40.64v-151h-40.64v15.65c-7.69-10.16-23.89-18.94-45.85-18.94-47.78 0-75.79 35.42-75.79 78.8s28 78.8 75.79 78.8c21.41 0 39.54-9.88 45.85-18.39zm1.7-75.51c0 26.36-15.93 42.56-41.46 42.56-25.26 0-41.46-18.67-41.46-42.56 0-24.71 15.37-42.83 41.46-42.83 25.46 0 41.46 17.84 41.46 42.83zm142.7-78.25c-13.45 0-30.2 6-40.36 16.2v-13.46h-40.92v151h40.92v-79.9c-.83-32.95 17.57-39.82 28.83-39.82 15.92 0 29.11 7.14 29.11 30.48v89.24h42v-89.22c.01-39.26-15.92-64.52-59.58-64.52zm196.38 153.76h40.64v-151h-40.64v15.65c-7.69-10.16-23.89-18.94-45.86-18.94-47.77 0-75.78 35.42-75.78 78.8s28 78.8 75.78 78.8c21.42 0 39.54-9.88 45.86-18.39zm1.65-75.51c0 26.36-15.93 42.56-41.46 42.56-25.27 0-41.46-18.67-41.46-42.56 0-24.71 15.37-42.83 41.46-42.83 25.53 0 41.46 17.84 41.46 42.83zm102.39 75.51v-15.1c6.31 8.51 24.43 18.39 45.85 18.39 47.78 0 75.78-35.42 75.78-78.8s-28-78.8-75.78-78.8c-22 0-38.17 8.78-45.85 18.94v-70.55h-40.64v205.92zm-1.65-75.51c0-25 15.92-42.83 41.46-42.83 26.09 0 41.46 18.12 41.46 42.83 0 23.89-16.2 42.56-41.46 42.56-25.54 0-41.46-16.2-41.46-42.56zm139.18 75.51h41.18v-205.85h-41.18zm137.55 3.84c44.2 0 64.52-26.91 70.56-35.14l-31.85-18.4c-4.67 5.22-15.92 17.57-38.71 17.57-8.24 0-36.25-2.74-41.19-27.45h119.17s.82-7.42.82-18.95c-1.37-48.6-40.09-75-78.8-75-28.28 0-82.1 16.47-82.1 78.53s52.72 78.84 82.1 78.84zm-.28-121.4c20.6 0 34 15.1 35.7 28.83h-75.51c1.65-15.34 16.2-28.83 39.81-28.83z"/></g></svg>